# xmcd CD database file
#
# Track frame offsets:
#	150
#	22312
#	41872
#	68350
#	87370
#	106300
#
# Disc length: 1739 seconds
#
# Revision: 0
# Processed by: cddbd v1.5PL3 Copyright (c) Steve Scherf et al.
# Submitted via: CDex 1.51
#
DISCID=4a06c906
DTITLE=Psycho le Cemu - Prism
DYEAR=2001
DGENRE=JPop
TTITLE0=Prism
TTITLE1=この星に願いを…
TTITLE2=MEGATRON
TTITLE3=聖〜excalibur〜剣
TTITLE4=クロノス
TTITLE5=REMEMBRANCE
EXTD=YEAR: 2001
EXTT0=
EXTT1=
EXTT2=
EXTT3=
EXTT4=
EXTT5=
PLAYORDER=
